<svg width="419" height="420" viewBox="0 0 419 420" fill="none" xmlns="http://www.w3.org/2000/svg">
<path d="M142.637 24.948C187.427 -15.969 297.662 -3.95198 353.398 42.029C410.42 89.066 438.942 212.608 401.106 277.072C398.131 262.359 395.406 254.289 395.036 246.112C393.644 215.138 396.81 183.45 391.375 153.275C376.69 71.929 322.438 27.16 239.163 24.517C216.21 23.789 193.158 26.948 170.127 27.711C162.636 27.958 155.075 26.276 142.637 24.948" fill="#C6984C"/>
<path d="M24.459 148.145C25.166 155.212 27.604 162.618 26.318 169.303C-0.529966 308.392 79.078 389.35 217.249 394.968C223.03 395.201 229.213 393.59 234.534 395.131C244.979 398.163 254.95 402.813 265.119 406.791C255.678 411.264 246.293 419.469 236.774 419.631C103.091 421.883 -11.992 347.507 1.00003 190.793C2.25103 175.719 8.18003 161.035 11.932 146.166C16.1087 146.823 20.2827 147.483 24.454 148.145" fill="#C6984C"/>
<path d="M152.495 365.23C100.165 345.514 60.6049 314.137 44.7119 259.122C27.2699 198.757 36.7049 144.081 82.6809 96.542C-0.542053 214.325 79.5229 288.117 152.495 365.23Z" fill="#C6984C"/>
<path d="M261.239 48.608C322.056 65.5687 360.323 103.73 376.039 163.091C390.957 219.357 377.099 268.881 337.878 313.391C419.178 193.043 337.489 122.127 261.238 48.604" fill="#C6984C"/>
</svg>
